<svg width="113" height="113" viewBox="0 0 113 113" fill="none" xmlns="http://www.w3.org/2000/svg">
<circle cx="56.5" cy="56.5" r="56.5" fill="#5665F3"/>
<path d="M65.1757 27.6346C64.0041 25.9835 61.8597 25.4291 60.0808 26.1918C59.9631 24.7196 59.4925 23.2544 58.5762 21.9632C55.8811 18.1651 50.6169 17.2566 46.8389 19.9375C44.2425 21.7799 43.0529 24.8426 43.4152 27.8135C40.7305 26.4905 37.4468 26.6021 34.8505 28.4445C31.0725 31.1254 30.1918 36.3944 32.8869 40.1924C33.9888 41.7454 35.5299 42.7849 37.2133 43.3247C37.0063 43.9492 36.9492 44.6144 37.0466 45.2667C37.1439 45.9189 37.393 46.5398 37.7737 47.0791L47.5474 60.8527C48.895 62.7517 51.5271 63.2059 53.4161 61.8655L73.9676 47.2821C75.8566 45.9416 76.297 43.3071 74.9494 41.4081L71.7278 36.868L81.0217 35.4503L72.4697 23.3985L68.0626 31.703L65.1757 27.6346ZM49.2823 23.3809C51.1713 22.0405 53.8034 22.4947 55.151 24.3937C56.4985 26.2927 56.0582 28.9272 54.1692 30.2677C52.2801 31.6081 49.648 31.1539 48.3005 29.2549C46.9529 27.3558 47.3933 24.7214 49.2823 23.3809ZM37.2939 31.8879C39.183 30.5474 41.8151 31.0017 43.1626 32.9007C44.5102 34.7997 44.0698 37.4342 42.1808 38.7746C40.2918 40.1151 37.6597 39.6609 36.3121 37.7618C34.9646 35.8628 35.4049 33.2284 37.2939 31.8879Z" fill="black"/>
<path d="M27 49H85V58H81.7778L73.7222 100H38.2778L30.2222 58H27V49Z" fill="white"/>
</svg>
